<svg width="56" height="22" viewBox="0 0 56 22" fill="none" xmlns="http://www.w3.org/2000/svg">
<rect x="1" y="1" width="54" height="20" rx="10" fill="#3CDBC0"/>
<path d="M17.5625 5.41406H16.1328V16.0781H17.5625V5.41406ZM8.41016 10.0312C8.41016 12.4277 9.31836 13.9102 10.7305 13.9102C11.627 13.9102 12.3242 13.3184 12.7227 12.2812H13.9766V15.5859H15.3828V5.56641H13.9766V7.78125H12.7168C12.3242 6.75586 11.6211 6.16992 10.7305 6.17578C9.31836 6.16992 8.41016 7.64648 8.41016 10.0312ZM9.76953 10.0312C9.75781 8.39648 10.1035 7.58203 10.7305 7.58203C11.3457 7.58203 11.7207 8.39648 11.7266 10.0312C11.7207 11.6719 11.3457 12.4805 10.7305 12.4688C10.1035 12.4805 9.75781 11.6719 9.76953 10.0312ZM13.0156 8.97656H13.9766V11.0742H13.0215C13.0625 10.752 13.0859 10.4004 13.0859 10.0312C13.0859 9.65625 13.0625 9.30469 13.0156 8.97656ZM28.0312 6.82031H26.6484V5.41406H25.1484V11.707H26.6484V10.3594H28.0312V9.11719H26.6484V8.02734H28.0312V6.82031ZM18.2578 8.58984C18.252 10.1309 19.5176 11.209 21.1875 11.2031C22.8398 11.209 24.0938 10.1309 24.0938 8.58984C24.0938 7.08398 22.8398 5.99414 21.1875 6C19.5176 5.99414 18.252 7.08398 18.2578 8.58984ZM19.4648 13.3359H25.1484V16.0781H26.6484V12.1289H19.4648V13.3359ZM19.7344 8.58984C19.7227 7.75781 20.3496 7.27148 21.1875 7.27734C22.0078 7.27148 22.6348 7.75781 22.6406 8.58984C22.6348 9.45117 22.0078 9.94336 21.1875 9.9375C20.3496 9.94336 19.7227 9.45117 19.7344 8.58984ZM34.0352 6.30469H28.2812V7.5H29.1602V10.6289C28.7559 10.6348 28.3633 10.6406 28 10.6406L28.1641 11.8359C29.9453 11.8359 32.3828 11.8008 34.5156 11.4375L34.4102 10.3359C34.0117 10.3828 33.5957 10.4238 33.168 10.459V7.5H34.0352V6.30469ZM29.6055 15.8906H36.9062V14.6953H31.0938V12.5273H29.6055V15.8906ZM30.6016 10.5938V7.5H31.7266V10.5527C31.3516 10.5703 30.9707 10.582 30.6016 10.5938ZM35.0195 13.2773H36.5195V9.66797H37.9609V8.42578H36.5195V5.42578H35.0195V13.2773ZM47.1758 5.41406H45.7461V9.48047H44.7852V5.56641H43.3672V15.5859H44.7852V10.6992H45.7461V16.0781H47.1758V5.41406ZM38.2344 13.3945H42.4766V6.51562H38.2344V13.3945ZM39.6289 12.2227V7.69922H41.082V12.2227H39.6289Z" fill="#101820"/>
<rect x="1" y="1" width="54" height="20" rx="10" stroke="#3CDBC0" stroke-width="2"/>
</svg>
