<svg xmlns="http://www.w3.org/2000/svg" width="160" height="30" viewBox="0 0 160 30">
  <defs>
    <style>
      .cls-1 {
        fill: #ee2737;
        fill-rule: evenodd;
      }
    </style>
  </defs>
  <path id="Everline" class="cls-1" d="M-0.183,7.107V23.019H18.765V19.156H4.186V16.949H17.155V13.177H4.186V10.947H18.765V7.107H-0.183Zm24.793,0H19.321l9.635,15.913h4.461L43.052,7.107H37.809l-6.6,11.268Zm19.5,0V23.019H63.063V19.156H48.484V16.949H61.453V13.177H48.484V10.947H63.063V7.107H44.115ZM86.43,23.019l-3.541-5.335a4.839,4.839,0,0,0,3.15-4.9V12.763c0-3.288-1.955-5.657-7.175-5.657H65.229V23.019H69.6V18.328h9.014l2.9,4.691H86.43ZM78.865,10.993c1.955,0,2.805.483,2.805,1.771v0.023c0,1.357-.851,1.817-2.805,1.817H69.6v-3.61h9.267Zm9.2-3.886V23.019h18.419V18.834H92.552V7.107H88.068Zm24.517,15.913V7.107H108.1V23.019h4.484Zm19.961-6.071-13.2-9.842h-4.093V23.019h4.415V13.177l13.2,9.842h4.116V7.107h-4.438v9.842Zm7.111-9.842V23.019H158.6V19.156H144.026V16.949H157V13.177H144.026V10.947H158.6V7.107H139.657Z"/>
</svg>
