<svg width="120" height="200" viewBox="0 0 120 200" fill="none" xmlns="http://www.w3.org/2000/svg">
<path fill-rule="evenodd" clip-rule="evenodd" d="M29 32H27V26.956C26.9989 26.1722 26.687 25.4208 26.1327 24.8666C25.5783 24.3125 24.8268 24.0008 24.043 24H15.957C15.1732 24.0008 14.4217 24.3125 13.8673 24.8666C13.313 25.4208 13.0011 26.1722 13 26.956V32H11V26.956C11.0019 25.642 11.5247 24.3823 12.454 23.4533C13.3832 22.5242 14.643 22.0016 15.957 22H24.043C25.357 22.0016 26.6168 22.5242 27.546 23.4533C28.4753 24.3823 28.9981 25.642 29 26.956V32ZM20 20C18.8133 20 17.6533 19.6481 16.6666 18.9888C15.6799 18.3295 14.9108 17.3925 14.4567 16.2961C14.0026 15.1997 13.8838 13.9933 14.1153 12.8295C14.3468 11.6656 14.9182 10.5965 15.7574 9.75736C16.5965 8.91825 17.6656 8.3468 18.8295 8.11529C19.9933 7.88378 21.1997 8.0026 22.2961 8.45673C23.3925 8.91085 24.3295 9.67989 24.9888 10.6666C25.6481 11.6533 26 12.8133 26 14C26 15.5913 25.3679 17.1174 24.2426 18.2426C23.1174 19.3679 21.5913 20 20 20ZM20 10C19.2089 10 18.4355 10.2346 17.7777 10.6741C17.1199 11.1136 16.6072 11.7384 16.3045 12.4693C16.0017 13.2002 15.9225 14.0044 16.0769 14.7804C16.2312 15.5563 16.6122 16.269 17.1716 16.8284C17.731 17.3878 18.4437 17.7688 19.2196 17.9231C19.9956 18.0775 20.7998 17.9983 21.5307 17.6955C22.2616 17.3928 22.8864 16.8801 23.3259 16.2223C23.7654 15.5645 24 14.7911 24 14C24 12.9391 23.5786 11.9217 22.8284 11.1716C22.0783 10.4214 21.0609 10 20 10Z" fill="#101820"/>
<path fill-rule="evenodd" clip-rule="evenodd" d="M28.916 56.0047C28.6771 53.8054 27.6342 51.7719 25.9876 50.2945C24.341 48.8171 22.2067 48 19.9945 48C17.7823 48 15.648 48.8171 14.0014 50.2945C12.3548 51.7719 11.3119 53.8054 11.073 56.0047H8L9.916 69.4247C10.0202 70.138 10.3764 70.7904 10.9202 71.2637C11.4639 71.737 12.1592 71.9999 12.88 72.0047H27.12C27.8408 71.9999 28.5361 71.737 29.0798 71.2637C29.6236 70.7904 29.9798 70.138 30.084 69.4247L32 56.0047H28.916ZM19.995 50.0047C21.6747 50.0088 23.2967 50.6174 24.5646 51.7191C25.8325 52.8208 26.6615 54.3421 26.9 56.0047H13.089C13.3275 54.3419 14.1567 52.8205 15.4248 51.7188C16.6928 50.617 18.3152 50.0086 19.995 50.0047ZM28.095 69.1447C28.0598 69.3823 27.9409 69.5994 27.7597 69.7571C27.5786 69.9147 27.3471 70.0026 27.107 70.0047H12.88C12.6399 70.0026 12.4084 69.9147 12.2273 69.7571C12.0461 69.5994 11.9272 69.3823 11.892 69.1447L10.305 58.0047H29.685L28.095 69.1447Z" fill="#101820"/>
<path fill-rule="evenodd" clip-rule="evenodd" d="M28.668 100.423V99C28.668 96.6101 27.7186 94.3181 26.0287 92.6283C24.3389 90.9384 22.0469 89.989 19.657 89.989C17.2671 89.989 14.9752 90.9384 13.2853 92.6283C11.5954 94.3181 10.646 96.6101 10.646 99V100.424C9.59657 100.885 8.73759 101.694 8.21296 102.713C7.68833 103.732 7.52993 104.901 7.76429 106.023C7.99864 107.145 8.61152 108.153 9.50025 108.877C10.389 109.601 11.4996 109.998 12.646 110.001H14.646V100H12.646V99C12.646 97.1412 13.3844 95.3586 14.6987 94.0442C16.0131 92.7299 17.7957 91.9915 19.6545 91.9915C21.5133 91.9915 23.2959 92.7299 24.6103 94.0442C25.9246 95.3586 26.663 97.1412 26.663 99V100H24.663V108H20.663V110H26.67C27.8163 109.997 28.9265 109.6 29.8149 108.875C30.7033 108.151 31.3158 107.143 31.5499 106.021C31.784 104.899 31.6255 103.731 31.1008 102.711C30.5762 101.692 29.7173 100.884 28.668 100.423ZM12.649 108C12.255 108 11.8649 107.922 11.501 107.772C11.137 107.621 10.8063 107.4 10.5277 107.121C10.2491 106.843 10.0281 106.512 9.87737 106.148C9.7266 105.784 9.64901 105.394 9.64901 105C9.64901 104.606 9.7266 104.216 9.87737 103.852C10.0281 103.488 10.2491 103.157 10.5277 102.879C10.8063 102.6 11.137 102.379 11.501 102.228C11.8649 102.078 12.255 102 12.649 102V108ZM26.666 108V102C27.06 102 27.4501 102.078 27.8141 102.228C28.178 102.379 28.5088 102.6 28.7873 102.879C29.0659 103.157 29.2869 103.488 29.4376 103.852C29.5884 104.216 29.666 104.606 29.666 105C29.666 105.394 29.5884 105.784 29.4376 106.148C29.2869 106.512 29.0659 106.843 28.7873 107.121C28.5088 107.4 28.178 107.621 27.8141 107.772C27.4501 107.922 27.06 108 26.666 108Z" fill="#101820"/>
<path fill-rule="evenodd" clip-rule="evenodd" d="M30.7174 190.717C30.6282 190.807 30.5224 190.877 30.4059 190.926C30.2894 190.974 30.1645 190.999 30.0384 190.999C29.9123 190.999 29.7874 190.974 29.6709 190.926C29.5544 190.877 29.4485 190.807 29.3594 190.717L25.3594 186.717C23.3768 188.351 20.8416 189.159 18.2793 188.974C15.7171 188.789 13.3243 187.625 11.5972 185.723C9.87011 183.821 8.94113 181.328 9.00289 178.76C9.06465 176.191 10.1124 173.745 11.9289 171.929C13.7455 170.112 16.1914 169.065 18.7596 169.003C21.3278 168.941 23.8213 169.87 25.723 171.597C27.6247 173.324 28.7889 175.717 28.974 178.279C29.1591 180.842 28.3511 183.377 26.7174 185.359L30.7174 189.359C30.8066 189.449 30.8773 189.554 30.9256 189.671C30.9739 189.787 30.9987 189.912 30.9987 190.038C30.9987 190.165 30.9739 190.289 30.9256 190.406C30.8773 190.522 30.8066 190.628 30.7174 190.717ZM19.0024 171.002C17.4201 171.002 15.8734 171.472 14.5578 172.351C13.2422 173.23 12.2169 174.479 11.6114 175.941C11.0059 177.403 10.8474 179.011 11.1561 180.563C11.4648 182.115 12.2267 183.54 13.3455 184.659C14.4644 185.778 15.8898 186.54 17.4417 186.849C18.9935 187.157 20.6021 186.999 22.0639 186.393C23.5257 185.788 24.7751 184.763 25.6542 183.447C26.5332 182.131 27.0024 180.585 27.0024 179.002C27.0024 176.881 26.1595 174.846 24.6592 173.346C23.159 171.845 21.1241 171.002 19.0024 171.002Z" fill="#101820"/>
<path fill-rule="evenodd" clip-rule="evenodd" d="M19.2929 128.293C19.6834 127.902 20.3166 127.902 20.7071 128.293L31.7071 139.293C31.8946 139.48 32 139.735 32 140V151C32 151.552 31.5523 152 31 152V151C31 152 31 152 31 152H9C8.44772 152 8 151.552 8 151V140C8 139.735 8.10536 139.48 8.29289 139.293L19.2929 128.293ZM30 150V140.414L20 130.414L10 140.414V150H30Z" fill="#101820"/>
<path fill-rule="evenodd" clip-rule="evenodd" d="M69 32H67V26.956C66.9989 26.1722 66.687 25.4208 66.1327 24.8666C65.5783 24.3125 64.8268 24.0008 64.043 24H55.957C55.1732 24.0008 54.4217 24.3125 53.8673 24.8666C53.313 25.4208 53.0011 26.1722 53 26.956V32H51V26.956C51.0019 25.642 51.5247 24.3823 52.454 23.4533C53.3832 22.5242 54.643 22.0016 55.957 22H64.043C65.357 22.0016 66.6168 22.5242 67.546 23.4533C68.4753 24.3823 68.9981 25.642 69 26.956V32ZM60 20C58.8133 20 57.6533 19.6481 56.6666 18.9888C55.6799 18.3295 54.9108 17.3925 54.4567 16.2961C54.0026 15.1997 53.8838 13.9933 54.1153 12.8295C54.3468 11.6656 54.9182 10.5965 55.7574 9.75736C56.5965 8.91825 57.6656 8.3468 58.8295 8.11529C59.9933 7.88378 61.1997 8.0026 62.2961 8.45673C63.3925 8.91085 64.3295 9.67989 64.9888 10.6666C65.6481 11.6533 66 12.8133 66 14C66 15.5913 65.3679 17.1174 64.2426 18.2426C63.1174 19.3679 61.5913 20 60 20ZM60 10C59.2089 10 58.4355 10.2346 57.7777 10.6741C57.1199 11.1136 56.6072 11.7384 56.3045 12.4693C56.0017 13.2002 55.9225 14.0044 56.0769 14.7804C56.2312 15.5563 56.6122 16.269 57.1716 16.8284C57.731 17.3878 58.4437 17.7688 59.2196 17.9231C59.9956 18.0775 60.7998 17.9983 61.5307 17.6955C62.2616 17.3928 62.8864 16.8801 63.3259 16.2223C63.7654 15.5645 64 14.7911 64 14C64 12.9391 63.5786 11.9217 62.8284 11.1716C62.0783 10.4214 61.0609 10 60 10Z" fill="#EE2737"/>
<path fill-rule="evenodd" clip-rule="evenodd" d="M68.916 56.0047C68.6771 53.8054 67.6342 51.7719 65.9876 50.2945C64.341 48.8171 62.2067 48 59.9945 48C57.7823 48 55.648 48.8171 54.0014 50.2945C52.3548 51.7719 51.3119 53.8054 51.073 56.0047H48L49.916 69.4247C50.0202 70.138 50.3764 70.7904 50.9202 71.2637C51.4639 71.737 52.1592 71.9999 52.88 72.0047H67.12C67.8408 71.9999 68.5361 71.737 69.0798 71.2637C69.6236 70.7904 69.9798 70.138 70.084 69.4247L72 56.0047H68.916ZM59.995 50.0047C61.6747 50.0088 63.2967 50.6174 64.5646 51.7191C65.8325 52.8208 66.6615 54.3421 66.9 56.0047H53.089C53.3275 54.3419 54.1567 52.8205 55.4248 51.7188C56.6928 50.617 58.3152 50.0086 59.995 50.0047ZM68.095 69.1447C68.0598 69.3823 67.9409 69.5994 67.7597 69.7571C67.5786 69.9147 67.3471 70.0026 67.107 70.0047H52.88C52.6399 70.0026 52.4084 69.9147 52.2273 69.7571C52.0461 69.5994 51.9272 69.3823 51.892 69.1447L50.305 58.0047H69.685L68.095 69.1447Z" fill="#EE2737"/>
<path fill-rule="evenodd" clip-rule="evenodd" d="M68.668 100.423V99C68.668 96.6101 67.7186 94.3181 66.0287 92.6283C64.3389 90.9384 62.0469 89.989 59.657 89.989C57.2671 89.989 54.9752 90.9384 53.2853 92.6283C51.5954 94.3181 50.646 96.6101 50.646 99V100.424C49.5966 100.885 48.7376 101.694 48.213 102.713C47.6883 103.732 47.5299 104.901 47.7643 106.023C47.9986 107.145 48.6115 108.153 49.5003 108.877C50.389 109.601 51.4996 109.998 52.646 110.001H54.646V100H52.646V99C52.646 97.1412 53.3844 95.3586 54.6987 94.0442C56.0131 92.7299 57.7957 91.9915 59.6545 91.9915C61.5133 91.9915 63.2959 92.7299 64.6103 94.0442C65.9246 95.3586 66.663 97.1412 66.663 99V100H64.663V108H60.663V110H66.67C67.8163 109.997 68.9265 109.6 69.8149 108.875C70.7033 108.151 71.3158 107.143 71.5499 106.021C71.784 104.899 71.6255 103.731 71.1008 102.711C70.5762 101.692 69.7173 100.884 68.668 100.423ZM52.649 108C52.255 108 51.8649 107.922 51.501 107.772C51.137 107.621 50.8063 107.4 50.5277 107.121C50.2491 106.843 50.0281 106.512 49.8774 106.148C49.7266 105.784 49.649 105.394 49.649 105C49.649 104.606 49.7266 104.216 49.8774 103.852C50.0281 103.488 50.2491 103.157 50.5277 102.879C50.8063 102.6 51.137 102.379 51.501 102.228C51.8649 102.078 52.255 102 52.649 102V108ZM66.666 108V102C67.06 102 67.4501 102.078 67.8141 102.228C68.178 102.379 68.5088 102.6 68.7873 102.879C69.0659 103.157 69.2869 103.488 69.4376 103.852C69.5884 104.216 69.666 104.606 69.666 105C69.666 105.394 69.5884 105.784 69.4376 106.148C69.2869 106.512 69.0659 106.843 68.7873 107.121C68.5088 107.4 68.178 107.621 67.8141 107.772C67.4501 107.922 67.06 108 66.666 108Z" fill="#EE2737"/>
<path fill-rule="evenodd" clip-rule="evenodd" d="M70.7174 190.717C70.6282 190.807 70.5224 190.877 70.4059 190.926C70.2894 190.974 70.1645 190.999 70.0384 190.999C69.9123 190.999 69.7874 190.974 69.6709 190.926C69.5544 190.877 69.4485 190.807 69.3594 190.717L65.3594 186.717C63.3768 188.351 60.8416 189.159 58.2793 188.974C55.7171 188.789 53.3243 187.625 51.5972 185.723C49.8701 183.821 48.9411 181.328 49.0029 178.76C49.0647 176.191 50.1124 173.745 51.9289 171.929C53.7455 170.112 56.1914 169.065 58.7596 169.003C61.3278 168.941 63.8213 169.87 65.723 171.597C67.6247 173.324 68.7889 175.717 68.974 178.279C69.1591 180.842 68.3511 183.377 66.7174 185.359L70.7174 189.359C70.8066 189.449 70.8773 189.554 70.9256 189.671C70.9739 189.787 70.9987 189.912 70.9987 190.038C70.9987 190.165 70.9739 190.289 70.9256 190.406C70.8773 190.522 70.8066 190.628 70.7174 190.717ZM59.0024 171.002C57.4201 171.002 55.8734 171.472 54.5578 172.351C53.2422 173.23 52.2169 174.479 51.6114 175.941C51.0059 177.403 50.8474 179.011 51.1561 180.563C51.4648 182.115 52.2267 183.54 53.3455 184.659C54.4644 185.778 55.8898 186.54 57.4417 186.849C58.9935 187.157 60.6021 186.999 62.0639 186.393C63.5257 185.788 64.7751 184.763 65.6542 183.447C66.5332 182.131 67.0024 180.585 67.0024 179.002C67.0024 176.881 66.1595 174.846 64.6592 173.346C63.159 171.845 61.1241 171.002 59.0024 171.002Z" fill="#EE2737"/>
<path fill-rule="evenodd" clip-rule="evenodd" d="M59.2929 128.293C59.6834 127.902 60.3166 127.902 60.7071 128.293L71.7071 139.293C71.8946 139.48 72 139.735 72 140V151C72 151.552 71.5523 152 71 152V151C71 152 71 152 71 152H49C48.4477 152 48 151.552 48 151V140C48 139.735 48.1054 139.48 48.2929 139.293L59.2929 128.293ZM70 150V140.414L60 130.414L50 140.414V150H70Z" fill="#EE2737"/>
<path fill-rule="evenodd" clip-rule="evenodd" d="M109 32H107V26.956C106.999 26.1722 106.687 25.4208 106.133 24.8666C105.578 24.3125 104.827 24.0008 104.043 24H95.957C95.1732 24.0008 94.4217 24.3125 93.8673 24.8666C93.313 25.4208 93.0011 26.1722 93 26.956V32H91V26.956C91.0019 25.642 91.5247 24.3823 92.454 23.4533C93.3832 22.5242 94.643 22.0016 95.957 22H104.043C105.357 22.0016 106.617 22.5242 107.546 23.4533C108.475 24.3823 108.998 25.642 109 26.956V32ZM100 20C98.8133 20 97.6533 19.6481 96.6666 18.9888C95.6799 18.3295 94.9108 17.3925 94.4567 16.2961C94.0026 15.1997 93.8838 13.9933 94.1153 12.8295C94.3468 11.6656 94.9182 10.5965 95.7574 9.75736C96.5965 8.91825 97.6656 8.3468 98.8295 8.11529C99.9933 7.88378 101.2 8.0026 102.296 8.45673C103.392 8.91085 104.33 9.67989 104.989 10.6666C105.648 11.6533 106 12.8133 106 14C106 15.5913 105.368 17.1174 104.243 18.2426C103.117 19.3679 101.591 20 100 20ZM100 10C99.2089 10 98.4355 10.2346 97.7777 10.6741C97.1199 11.1136 96.6072 11.7384 96.3045 12.4693C96.0017 13.2002 95.9225 14.0044 96.0769 14.7804C96.2312 15.5563 96.6122 16.269 97.1716 16.8284C97.731 17.3878 98.4437 17.7688 99.2196 17.9231C99.9956 18.0775 100.8 17.9983 101.531 17.6955C102.262 17.3928 102.886 16.8801 103.326 16.2223C103.765 15.5645 104 14.7911 104 14C104 12.9391 103.579 11.9217 102.828 11.1716C102.078 10.4214 101.061 10 100 10Z" fill="white"/>
<path fill-rule="evenodd" clip-rule="evenodd" d="M108.916 56.0047C108.677 53.8054 107.634 51.7719 105.988 50.2945C104.341 48.8171 102.207 48 99.9945 48C97.7823 48 95.648 48.8171 94.0014 50.2945C92.3548 51.7719 91.3119 53.8054 91.073 56.0047H88L89.916 69.4247C90.0202 70.138 90.3764 70.7904 90.9202 71.2637C91.4639 71.737 92.1592 71.9999 92.88 72.0047H107.12C107.841 71.9999 108.536 71.737 109.08 71.2637C109.624 70.7904 109.98 70.138 110.084 69.4247L112 56.0047H108.916ZM99.995 50.0047C101.675 50.0088 103.297 50.6174 104.565 51.7191C105.833 52.8208 106.661 54.3421 106.9 56.0047H93.089C93.3275 54.3419 94.1567 52.8205 95.4248 51.7188C96.6928 50.617 98.3152 50.0086 99.995 50.0047ZM108.095 69.1447C108.06 69.3823 107.941 69.5994 107.76 69.7571C107.579 69.9147 107.347 70.0026 107.107 70.0047H92.88C92.6399 70.0026 92.4084 69.9147 92.2273 69.7571C92.0461 69.5994 91.9272 69.3823 91.892 69.1447L90.305 58.0047H109.685L108.095 69.1447Z" fill="white"/>
<path fill-rule="evenodd" clip-rule="evenodd" d="M108.668 100.423V99C108.668 96.6101 107.719 94.3181 106.029 92.6283C104.339 90.9384 102.047 89.989 99.657 89.989C97.2671 89.989 94.9752 90.9384 93.2853 92.6283C91.5954 94.3181 90.646 96.6101 90.646 99V100.424C89.5966 100.885 88.7376 101.694 88.213 102.713C87.6883 103.732 87.5299 104.901 87.7643 106.023C87.9986 107.145 88.6115 108.153 89.5003 108.877C90.389 109.601 91.4996 109.998 92.646 110.001H94.646V100H92.646V99C92.646 97.1412 93.3844 95.3586 94.6987 94.0442C96.0131 92.7299 97.7957 91.9915 99.6545 91.9915C101.513 91.9915 103.296 92.7299 104.61 94.0442C105.925 95.3586 106.663 97.1412 106.663 99V100H104.663V108H100.663V110H106.67C107.816 109.997 108.927 109.6 109.815 108.875C110.703 108.151 111.316 107.143 111.55 106.021C111.784 104.899 111.625 103.731 111.101 102.711C110.576 101.692 109.717 100.884 108.668 100.423ZM92.649 108C92.255 108 91.8649 107.922 91.501 107.772C91.137 107.621 90.8063 107.4 90.5277 107.121C90.2491 106.843 90.0281 106.512 89.8774 106.148C89.7266 105.784 89.649 105.394 89.649 105C89.649 104.606 89.7266 104.216 89.8774 103.852C90.0281 103.488 90.2491 103.157 90.5277 102.879C90.8063 102.6 91.137 102.379 91.501 102.228C91.8649 102.078 92.255 102 92.649 102V108ZM106.666 108V102C107.06 102 107.45 102.078 107.814 102.228C108.178 102.379 108.509 102.6 108.787 102.879C109.066 103.157 109.287 103.488 109.438 103.852C109.588 104.216 109.666 104.606 109.666 105C109.666 105.394 109.588 105.784 109.438 106.148C109.287 106.512 109.066 106.843 108.787 107.121C108.509 107.4 108.178 107.621 107.814 107.772C107.45 107.922 107.06 108 106.666 108Z" fill="white"/>
<path fill-rule="evenodd" clip-rule="evenodd" d="M110.717 190.717C110.628 190.807 110.522 190.877 110.406 190.926C110.289 190.974 110.165 190.999 110.038 190.999C109.912 190.999 109.787 190.974 109.671 190.926C109.554 190.877 109.449 190.807 109.359 190.717L105.359 186.717C103.377 188.351 100.842 189.159 98.2793 188.974C95.7171 188.789 93.3243 187.625 91.5972 185.723C89.8701 183.821 88.9411 181.328 89.0029 178.76C89.0647 176.191 90.1124 173.745 91.9289 171.929C93.7455 170.112 96.1914 169.065 98.7596 169.003C101.328 168.941 103.821 169.87 105.723 171.597C107.625 173.324 108.789 175.717 108.974 178.279C109.159 180.842 108.351 183.377 106.717 185.359L110.717 189.359C110.807 189.449 110.877 189.554 110.926 189.671C110.974 189.787 110.999 189.912 110.999 190.038C110.999 190.165 110.974 190.289 110.926 190.406C110.877 190.522 110.807 190.628 110.717 190.717ZM99.0024 171.002C97.4201 171.002 95.8734 171.472 94.5578 172.351C93.2422 173.23 92.2169 174.479 91.6114 175.941C91.0059 177.403 90.8474 179.011 91.1561 180.563C91.4648 182.115 92.2267 183.54 93.3455 184.659C94.4644 185.778 95.8898 186.54 97.4417 186.849C98.9935 187.157 100.602 186.999 102.064 186.393C103.526 185.788 104.775 184.763 105.654 183.447C106.533 182.131 107.002 180.585 107.002 179.002C107.002 176.881 106.16 174.846 104.659 173.346C103.159 171.845 101.124 171.002 99.0024 171.002Z" fill="white"/>
<path fill-rule="evenodd" clip-rule="evenodd" d="M99.2929 128.293C99.6834 127.902 100.317 127.902 100.707 128.293L111.707 139.293C111.895 139.48 112 139.735 112 140V151C112 151.552 111.552 152 111 152V151C111 152 111 152 111 152H89C88.4477 152 88 151.552 88 151V140C88 139.735 88.1054 139.48 88.2929 139.293L99.2929 128.293ZM110 150V140.414L100 130.414L90 140.414V150H110Z" fill="white"/>
</svg>
