<svg xmlns="http://www.w3.org/2000/svg" width="28" height="28" viewBox="0 0 28 28">
  <defs>
    <style>
      .cls-1 {
        fill-rule: evenodd;
      }
    </style>
  </defs>
  <path class="cls-1" d="M17.534,4.081a4.026,4.026,0,0,0-2.587,1.473,4.115,4.115,0,0,0-.892,2.864C15.944,8.576,17.757,6.28,17.534,4.081Zm3.779,13.805c-0.569,1.788-2.274,4.953-4.025,4.987-1.164.024-1.537-.747-2.867-0.747s-1.745.723-2.844,0.77c-1.861.077-4.734-4.569-4.734-8.621,0-3.722,2.393-5.567,4.485-5.6,1.121-.022,2.181.82,2.865,0.82s1.973-1.012,3.325-.862a3.938,3.938,0,0,1,1.814.54A3.992,3.992,0,0,1,20.692,10.5a4.276,4.276,0,0,0-1.41,1.7,4.329,4.329,0,0,0,.358,4.265A4.251,4.251,0,0,0,21.312,17.886Z"/>
</svg>
